<svg width="17" height="19" viewBox="0 0 17 19" fill="none" xmlns="http://www.w3.org/2000/svg">
<path d="M0.69008 0.538244L0.690955 0.537809C0.737576 0.51406 0.788978 0.501251 0.841288 0.500199C0.89387 0.499215 0.9468 0.509893 0.9945 0.532036L0.996243 0.533351L16.151 7.47564L16.1514 7.47652C16.2088 7.50298 16.2577 7.54468 16.2931 7.59698C16.3285 7.64936 16.3492 7.71044 16.3524 7.77357C16.3556 7.83679 16.341 7.89986 16.3109 7.95559C16.2809 8.01113 16.2365 8.05729 16.1822 8.08933L16.18 8.09151L13.1112 9.92142L12.5937 10.2297L12.9918 10.6819L16.236 14.3566L16.2369 14.3583C16.2672 14.3925 16.2911 14.4324 16.306 14.4756C16.3208 14.5186 16.3264 14.5643 16.3236 14.6097C16.3208 14.6552 16.3097 14.7001 16.2896 14.7411C16.2695 14.782 16.241 14.8186 16.2068 14.8487L16.2055 14.8505L12.8262 17.8378L12.8249 17.8395C12.7909 17.8697 12.7511 17.8925 12.7081 17.9074C12.6649 17.9223 12.6192 17.9291 12.5736 17.9262C12.528 17.9234 12.4836 17.9111 12.4426 17.891C12.4016 17.8708 12.3642 17.8429 12.3341 17.8086L12.3337 17.8077L9.0903 14.1326L8.69141 13.6808L8.32116 14.1559L6.12504 16.9699L6.12241 16.9733C6.08372 17.0238 6.03169 17.0631 5.97232 17.0861C5.91299 17.109 5.84833 17.1148 5.78579 17.1035C5.72325 17.0922 5.66498 17.0636 5.61742 17.0214C5.56987 16.9791 5.53464 16.9243 5.51606 16.8635L5.51477 16.8587L0.515639 0.950946C0.491208 0.872802 0.495402 0.788412 0.527168 0.712956C0.558989 0.637421 0.616971 0.575355 0.69008 0.538244Z" fill="white" stroke="#001DFC"/>
</svg>
